G75*
%MOIN*%
%OFA0B0*%
%FSLAX24Y24*%
%IPPOS*%
%LPD*%
%AMOC8*
5,1,8,0,0,1.08239X$1,22.5*
%
%ADD10C,0.0820*%
%ADD11C,0.0730*%
%ADD12C,0.0680*%
%ADD13C,0.1680*%
%ADD14C,0.0560*%
%ADD15R,0.0730X0.0730*%
%ADD16C,0.0860*%
%ADD17R,0.0820X0.0820*%
%ADD18C,0.0460*%
D10*
X001933Y013930D03*
X001933Y014930D03*
X001933Y015930D03*
X001933Y016930D03*
X001933Y017930D03*
X001933Y018930D03*
X001933Y019930D03*
X001933Y020930D03*
X001933Y021930D03*
X001933Y022930D03*
X001933Y024430D03*
X001933Y025430D03*
X001933Y026430D03*
X001933Y027430D03*
X001933Y028430D03*
X001933Y029430D03*
X001933Y030430D03*
X001933Y031430D03*
X003933Y026930D03*
X004933Y026930D03*
X004933Y024930D03*
X003933Y024930D03*
X003933Y023430D03*
X004933Y023430D03*
X007433Y020430D03*
X007433Y019430D03*
X010433Y017430D03*
X010433Y016430D03*
X010433Y014330D03*
X011433Y014430D03*
X012433Y014330D03*
X013433Y014430D03*
X014433Y014330D03*
X014433Y016430D03*
X014433Y017430D03*
X016433Y017430D03*
X016433Y016430D03*
X012433Y016430D03*
X012433Y017430D03*
X009433Y014430D03*
X009933Y023930D03*
X009933Y024930D03*
X015933Y030430D03*
X015933Y031430D03*
X020933Y031430D03*
X020933Y030430D03*
X020933Y029430D03*
X020933Y028430D03*
X020933Y027430D03*
X020933Y026430D03*
X020933Y024430D03*
X020933Y023430D03*
X020933Y022430D03*
X020933Y021430D03*
X020933Y020430D03*
X020933Y019430D03*
X020933Y018430D03*
X020933Y017430D03*
D11*
X020433Y013930D03*
X019433Y013930D03*
X018433Y013930D03*
X018433Y014930D03*
X017433Y014930D03*
X017433Y013930D03*
X018933Y021430D03*
X018933Y022430D03*
X018933Y025430D03*
X018933Y026430D03*
X017933Y030430D03*
X014433Y030430D03*
X013433Y030430D03*
X011933Y022930D03*
X010933Y022930D03*
X005433Y015930D03*
X005433Y014930D03*
X004433Y014930D03*
X004433Y015930D03*
X004933Y017430D03*
X004933Y018430D03*
X004933Y019430D03*
X004933Y020430D03*
X006433Y014930D03*
X007433Y014930D03*
X003433Y028930D03*
X003433Y029930D03*
D12*
X004933Y029680D02*
X004933Y030280D01*
X005933Y030180D02*
X005933Y029580D01*
X005933Y028680D02*
X005933Y028080D01*
X006933Y028180D02*
X006933Y028780D01*
X006933Y029680D02*
X006933Y030280D01*
X007933Y030180D02*
X007933Y029580D01*
X007933Y028680D02*
X007933Y028080D01*
X008933Y028180D02*
X008933Y028780D01*
X008933Y029680D02*
X008933Y030280D01*
X009933Y030180D02*
X009933Y029580D01*
X009933Y028680D02*
X009933Y028080D01*
X010933Y028180D02*
X010933Y028780D01*
X010933Y029680D02*
X010933Y030280D01*
X004933Y028780D02*
X004933Y028180D01*
X010433Y019730D02*
X010433Y019130D01*
X011433Y019130D02*
X011433Y019730D01*
X012433Y019730D02*
X012433Y019130D01*
X014933Y019130D02*
X014933Y019730D01*
X015933Y019730D02*
X015933Y019130D01*
X016933Y019130D02*
X016933Y019730D01*
X017433Y013030D02*
X017433Y012430D01*
X016433Y012430D02*
X016433Y013030D01*
X015433Y013030D02*
X015433Y012430D01*
X018433Y012430D02*
X018433Y013030D01*
X019433Y013030D02*
X019433Y012430D01*
X020433Y012430D02*
X020433Y013030D01*
X008433Y013030D02*
X008433Y012430D01*
X007433Y012430D02*
X007433Y013030D01*
X006433Y013030D02*
X006433Y012430D01*
X005433Y012430D02*
X005433Y013030D01*
X004433Y013030D02*
X004433Y012430D01*
X003433Y012430D02*
X003433Y013030D01*
D13*
X001383Y007930D03*
X010483Y007930D03*
X013383Y007930D03*
X022483Y007930D03*
D14*
X017673Y022430D02*
X017193Y022430D01*
X017193Y023430D02*
X017673Y023430D01*
X017673Y024430D02*
X017193Y024430D01*
X017193Y025430D02*
X017673Y025430D01*
X017673Y026430D02*
X017193Y026430D01*
X017193Y027430D02*
X017673Y027430D01*
X017673Y028430D02*
X017193Y028430D01*
X014673Y028430D02*
X014193Y028430D01*
X014193Y027430D02*
X014673Y027430D01*
X014673Y026430D02*
X014193Y026430D01*
X014193Y025430D02*
X014673Y025430D01*
X014673Y024430D02*
X014193Y024430D01*
X014193Y023430D02*
X014673Y023430D01*
X014673Y022430D02*
X014193Y022430D01*
D15*
X017933Y031430D03*
D16*
X007933Y027430D03*
X006933Y027430D03*
X006933Y023430D03*
X007933Y023430D03*
D17*
X007433Y018430D03*
D18*
X002933Y017430D03*
X009933Y026430D03*
X010433Y026930D03*
X010933Y024930D03*
X013433Y021430D03*
X012433Y028930D03*
X018433Y029430D03*
X005933Y026930D03*
M02*
