G75*
%MOIN*%
%OFA0B0*%
%FSLAX24Y24*%
%IPPOS*%
%LPD*%
%AMOC8*
5,1,8,0,0,1.08239X$1,22.5*
%
%ADD10C,0.0000*%
%ADD11C,0.0100*%
%ADD12C,0.0050*%
%ADD13C,0.0030*%
%ADD14C,0.0080*%
%ADD15C,0.0060*%
%ADD16R,0.0230X0.0230*%
D10*
X000583Y007930D02*
X000585Y007986D01*
X000591Y008043D01*
X000601Y008098D01*
X000615Y008153D01*
X000632Y008207D01*
X000654Y008259D01*
X000679Y008309D01*
X000707Y008358D01*
X000739Y008405D01*
X000774Y008449D01*
X000812Y008491D01*
X000853Y008530D01*
X000897Y008565D01*
X000943Y008598D01*
X000991Y008627D01*
X001041Y008653D01*
X001093Y008676D01*
X001147Y008694D01*
X001201Y008709D01*
X001256Y008720D01*
X001312Y008727D01*
X001369Y008730D01*
X001425Y008729D01*
X001482Y008724D01*
X001537Y008715D01*
X001592Y008702D01*
X001646Y008685D01*
X001699Y008665D01*
X001750Y008641D01*
X001799Y008613D01*
X001846Y008582D01*
X001891Y008548D01*
X001934Y008510D01*
X001973Y008470D01*
X002010Y008427D01*
X002043Y008382D01*
X002073Y008334D01*
X002100Y008284D01*
X002123Y008233D01*
X002143Y008180D01*
X002159Y008126D01*
X002171Y008070D01*
X002179Y008015D01*
X002183Y007958D01*
X002183Y007902D01*
X002179Y007845D01*
X002171Y007790D01*
X002159Y007734D01*
X002143Y007680D01*
X002123Y007627D01*
X002100Y007576D01*
X002073Y007526D01*
X002043Y007478D01*
X002010Y007433D01*
X001973Y007390D01*
X001934Y007350D01*
X001891Y007312D01*
X001846Y007278D01*
X001799Y007247D01*
X001750Y007219D01*
X001699Y007195D01*
X001646Y007175D01*
X001592Y007158D01*
X001537Y007145D01*
X001482Y007136D01*
X001425Y007131D01*
X001369Y007130D01*
X001312Y007133D01*
X001256Y007140D01*
X001201Y007151D01*
X001147Y007166D01*
X001093Y007184D01*
X001041Y007207D01*
X000991Y007233D01*
X000943Y007262D01*
X000897Y007295D01*
X000853Y007330D01*
X000812Y007369D01*
X000774Y007411D01*
X000739Y007455D01*
X000707Y007502D01*
X000679Y007551D01*
X000654Y007601D01*
X000632Y007653D01*
X000615Y007707D01*
X000601Y007762D01*
X000591Y007817D01*
X000585Y007874D01*
X000583Y007930D01*
X000933Y009930D02*
X000933Y033426D01*
X021803Y033426D01*
X021803Y009930D01*
X000933Y009930D01*
X009683Y007930D02*
X009685Y007986D01*
X009691Y008043D01*
X009701Y008098D01*
X009715Y008153D01*
X009732Y008207D01*
X009754Y008259D01*
X009779Y008309D01*
X009807Y008358D01*
X009839Y008405D01*
X009874Y008449D01*
X009912Y008491D01*
X009953Y008530D01*
X009997Y008565D01*
X010043Y008598D01*
X010091Y008627D01*
X010141Y008653D01*
X010193Y008676D01*
X010247Y008694D01*
X010301Y008709D01*
X010356Y008720D01*
X010412Y008727D01*
X010469Y008730D01*
X010525Y008729D01*
X010582Y008724D01*
X010637Y008715D01*
X010692Y008702D01*
X010746Y008685D01*
X010799Y008665D01*
X010850Y008641D01*
X010899Y008613D01*
X010946Y008582D01*
X010991Y008548D01*
X011034Y008510D01*
X011073Y008470D01*
X011110Y008427D01*
X011143Y008382D01*
X011173Y008334D01*
X011200Y008284D01*
X011223Y008233D01*
X011243Y008180D01*
X011259Y008126D01*
X011271Y008070D01*
X011279Y008015D01*
X011283Y007958D01*
X011283Y007902D01*
X011279Y007845D01*
X011271Y007790D01*
X011259Y007734D01*
X011243Y007680D01*
X011223Y007627D01*
X011200Y007576D01*
X011173Y007526D01*
X011143Y007478D01*
X011110Y007433D01*
X011073Y007390D01*
X011034Y007350D01*
X010991Y007312D01*
X010946Y007278D01*
X010899Y007247D01*
X010850Y007219D01*
X010799Y007195D01*
X010746Y007175D01*
X010692Y007158D01*
X010637Y007145D01*
X010582Y007136D01*
X010525Y007131D01*
X010469Y007130D01*
X010412Y007133D01*
X010356Y007140D01*
X010301Y007151D01*
X010247Y007166D01*
X010193Y007184D01*
X010141Y007207D01*
X010091Y007233D01*
X010043Y007262D01*
X009997Y007295D01*
X009953Y007330D01*
X009912Y007369D01*
X009874Y007411D01*
X009839Y007455D01*
X009807Y007502D01*
X009779Y007551D01*
X009754Y007601D01*
X009732Y007653D01*
X009715Y007707D01*
X009701Y007762D01*
X009691Y007817D01*
X009685Y007874D01*
X009683Y007930D01*
X012583Y007930D02*
X012585Y007986D01*
X012591Y008043D01*
X012601Y008098D01*
X012615Y008153D01*
X012632Y008207D01*
X012654Y008259D01*
X012679Y008309D01*
X012707Y008358D01*
X012739Y008405D01*
X012774Y008449D01*
X012812Y008491D01*
X012853Y008530D01*
X012897Y008565D01*
X012943Y008598D01*
X012991Y008627D01*
X013041Y008653D01*
X013093Y008676D01*
X013147Y008694D01*
X013201Y008709D01*
X013256Y008720D01*
X013312Y008727D01*
X013369Y008730D01*
X013425Y008729D01*
X013482Y008724D01*
X013537Y008715D01*
X013592Y008702D01*
X013646Y008685D01*
X013699Y008665D01*
X013750Y008641D01*
X013799Y008613D01*
X013846Y008582D01*
X013891Y008548D01*
X013934Y008510D01*
X013973Y008470D01*
X014010Y008427D01*
X014043Y008382D01*
X014073Y008334D01*
X014100Y008284D01*
X014123Y008233D01*
X014143Y008180D01*
X014159Y008126D01*
X014171Y008070D01*
X014179Y008015D01*
X014183Y007958D01*
X014183Y007902D01*
X014179Y007845D01*
X014171Y007790D01*
X014159Y007734D01*
X014143Y007680D01*
X014123Y007627D01*
X014100Y007576D01*
X014073Y007526D01*
X014043Y007478D01*
X014010Y007433D01*
X013973Y007390D01*
X013934Y007350D01*
X013891Y007312D01*
X013846Y007278D01*
X013799Y007247D01*
X013750Y007219D01*
X013699Y007195D01*
X013646Y007175D01*
X013592Y007158D01*
X013537Y007145D01*
X013482Y007136D01*
X013425Y007131D01*
X013369Y007130D01*
X013312Y007133D01*
X013256Y007140D01*
X013201Y007151D01*
X013147Y007166D01*
X013093Y007184D01*
X013041Y007207D01*
X012991Y007233D01*
X012943Y007262D01*
X012897Y007295D01*
X012853Y007330D01*
X012812Y007369D01*
X012774Y007411D01*
X012739Y007455D01*
X012707Y007502D01*
X012679Y007551D01*
X012654Y007601D01*
X012632Y007653D01*
X012615Y007707D01*
X012601Y007762D01*
X012591Y007817D01*
X012585Y007874D01*
X012583Y007930D01*
X021683Y007930D02*
X021685Y007986D01*
X021691Y008043D01*
X021701Y008098D01*
X021715Y008153D01*
X021732Y008207D01*
X021754Y008259D01*
X021779Y008309D01*
X021807Y008358D01*
X021839Y008405D01*
X021874Y008449D01*
X021912Y008491D01*
X021953Y008530D01*
X021997Y008565D01*
X022043Y008598D01*
X022091Y008627D01*
X022141Y008653D01*
X022193Y008676D01*
X022247Y008694D01*
X022301Y008709D01*
X022356Y008720D01*
X022412Y008727D01*
X022469Y008730D01*
X022525Y008729D01*
X022582Y008724D01*
X022637Y008715D01*
X022692Y008702D01*
X022746Y008685D01*
X022799Y008665D01*
X022850Y008641D01*
X022899Y008613D01*
X022946Y008582D01*
X022991Y008548D01*
X023034Y008510D01*
X023073Y008470D01*
X023110Y008427D01*
X023143Y008382D01*
X023173Y008334D01*
X023200Y008284D01*
X023223Y008233D01*
X023243Y008180D01*
X023259Y008126D01*
X023271Y008070D01*
X023279Y008015D01*
X023283Y007958D01*
X023283Y007902D01*
X023279Y007845D01*
X023271Y007790D01*
X023259Y007734D01*
X023243Y007680D01*
X023223Y007627D01*
X023200Y007576D01*
X023173Y007526D01*
X023143Y007478D01*
X023110Y007433D01*
X023073Y007390D01*
X023034Y007350D01*
X022991Y007312D01*
X022946Y007278D01*
X022899Y007247D01*
X022850Y007219D01*
X022799Y007195D01*
X022746Y007175D01*
X022692Y007158D01*
X022637Y007145D01*
X022582Y007136D01*
X022525Y007131D01*
X022469Y007130D01*
X022412Y007133D01*
X022356Y007140D01*
X022301Y007151D01*
X022247Y007166D01*
X022193Y007184D01*
X022141Y007207D01*
X022091Y007233D01*
X022043Y007262D01*
X021997Y007295D01*
X021953Y007330D01*
X021912Y007369D01*
X021874Y007411D01*
X021839Y007455D01*
X021807Y007502D01*
X021779Y007551D01*
X021754Y007601D01*
X021732Y007653D01*
X021715Y007707D01*
X021701Y007762D01*
X021691Y007817D01*
X021685Y007874D01*
X021683Y007930D01*
D11*
X004673Y009930D02*
X004673Y003828D01*
X009476Y003828D01*
X009476Y009930D01*
X020933Y009930D01*
X021933Y010930D01*
X021933Y032430D01*
X020933Y032430D01*
X019933Y033430D01*
X006933Y033430D01*
X005933Y032430D01*
X001433Y032430D01*
X000933Y031930D01*
X000933Y010930D01*
X001933Y009930D01*
X004673Y009930D01*
X009476Y009930D01*
X016760Y009891D02*
X016760Y005875D01*
X020303Y005875D01*
X020303Y009891D01*
X012183Y030930D02*
X009683Y030930D01*
X009433Y031180D01*
X009433Y032680D01*
X009683Y032930D01*
X012183Y032930D01*
X012433Y032680D01*
X012433Y031180D01*
X012183Y030930D01*
D12*
X020433Y031930D02*
X020433Y025930D01*
X021433Y025930D01*
X021433Y031930D01*
X020433Y031930D01*
X020433Y024930D02*
X020433Y016930D01*
X021433Y016930D01*
X021433Y024930D01*
X020433Y024930D01*
X002433Y023930D02*
X001433Y023930D01*
X001433Y031930D01*
X002433Y031930D01*
X002433Y023930D01*
X002433Y023430D02*
X002433Y013430D01*
X001433Y013430D01*
X001433Y023430D01*
X002433Y023430D01*
D13*
X010748Y031845D02*
X010805Y031845D01*
X010776Y031845D02*
X010776Y032015D01*
X010748Y032015D02*
X010805Y032015D01*
X010871Y031987D02*
X010871Y031958D01*
X010899Y031930D01*
X010956Y031930D01*
X010984Y031902D01*
X010984Y031873D01*
X010956Y031845D01*
X010899Y031845D01*
X010871Y031873D01*
X010871Y031987D02*
X010899Y032015D01*
X010956Y032015D01*
X010984Y031987D01*
X011055Y032015D02*
X011140Y032015D01*
X011168Y031987D01*
X011168Y031930D01*
X011140Y031902D01*
X011055Y031902D01*
X011055Y031845D02*
X011055Y032015D01*
X011698Y030765D02*
X011783Y030765D01*
X011811Y030737D01*
X011811Y030680D01*
X011783Y030652D01*
X011698Y030652D01*
X011755Y030652D02*
X011811Y030595D01*
X011882Y030623D02*
X011911Y030595D01*
X011967Y030595D01*
X011996Y030623D01*
X011996Y030652D01*
X011967Y030680D01*
X011911Y030680D01*
X011882Y030708D01*
X011882Y030737D01*
X011911Y030765D01*
X011967Y030765D01*
X011996Y030737D01*
X012066Y030765D02*
X012180Y030765D01*
X012123Y030765D02*
X012123Y030595D01*
X011698Y030595D02*
X011698Y030765D01*
D14*
X010183Y030730D02*
X009683Y030730D01*
X009683Y023180D02*
X005933Y023180D01*
X005933Y015680D01*
X009683Y015680D01*
X009683Y016180D01*
X006433Y016180D01*
X006433Y017430D01*
X006433Y021430D02*
X006433Y022680D01*
X009683Y022680D01*
X009683Y023180D01*
D15*
X008483Y005330D02*
X008483Y004430D01*
X008283Y004230D01*
X006683Y004230D01*
X006483Y004430D01*
X006483Y004480D01*
X006483Y004430D02*
X008483Y004430D01*
X008283Y004230D02*
X008283Y003430D01*
X008483Y003430D01*
X008283Y000930D01*
X008283Y000130D01*
X006683Y000130D01*
X006683Y000930D01*
X006483Y003430D01*
X006683Y003430D01*
X006683Y004230D01*
X006683Y003430D02*
X008283Y003430D01*
X008283Y000930D02*
X006683Y000930D01*
X018683Y000930D02*
X018483Y003430D01*
X018683Y003430D01*
X018683Y004230D01*
X020283Y004230D01*
X020483Y004430D01*
X020483Y005330D01*
X020483Y004430D02*
X018483Y004430D01*
X018483Y004480D01*
X018483Y004430D02*
X018683Y004230D01*
X018683Y003430D02*
X020283Y003430D01*
X020283Y004230D01*
X020283Y003430D02*
X020483Y003430D01*
X020283Y000930D01*
X020283Y000130D01*
X018683Y000130D01*
X018683Y000930D01*
X020283Y000930D01*
D16*
X014433Y014380D03*
X013433Y014380D03*
X012433Y014380D03*
X011433Y014380D03*
X010433Y014380D03*
X009433Y014380D03*
X009933Y028430D03*
X010933Y028430D03*
X010933Y029930D03*
X009933Y029930D03*
X008933Y029930D03*
X007933Y029930D03*
X006933Y029930D03*
X005933Y029930D03*
X004933Y029930D03*
X004933Y028430D03*
X005933Y028430D03*
X006933Y028430D03*
X007933Y028430D03*
X008933Y028430D03*
M02*
