%
M48
M72
T01C0.0240
T02C0.0276
T03C0.0320
T04C0.0354
T05C0.0394
T06C0.0400
T07C0.1600
%
T01
X2933Y17430
X9933Y26430
X10433Y26930
X10933Y24930
X13433Y21430
X12433Y28930
X18433Y29430
X5933Y26930
T02
X3433Y28930
X3433Y29930
X10933Y22930
X11933Y22930
X13433Y30430
X14433Y30430
X17933Y30430
X17933Y31430
X18933Y26430
X18933Y25430
X18933Y22430
X18933Y21430
X18433Y14930
X18433Y13930
X19433Y13930
X20433Y13930
X17433Y13930
X17433Y14930
X7433Y14930
X6433Y14930
X5433Y14930
X5433Y15930
X4433Y15930
X4433Y14930
X4933Y17430
X4933Y18430
X4933Y19430
X4933Y20430
T03
X14433Y22430
X14433Y23430
X14433Y24430
X14433Y25430
X14433Y26430
X14433Y27430
X14433Y28430
X17433Y28430
X17433Y27430
X17433Y26430
X17433Y25430
X17433Y24430
X17433Y23430
X17433Y22430
T04
X16433Y17430
X16433Y16430
X14433Y16430
X14433Y17430
X12433Y17430
X12433Y16430
X10433Y16430
X10433Y17430
X9933Y23930
X9933Y24930
X4933Y24930
X3933Y24930
X3933Y23430
X4933Y23430
X4933Y26930
X3933Y26930
X15933Y30430
X15933Y31430
T05
X7933Y27430
X6933Y27430
X6933Y23430
X7933Y23430
X7433Y20430
X7433Y19430
X7433Y18430
T06
X10433Y19430
X11433Y19430
X12433Y19430
X14933Y19430
X15933Y19430
X16933Y19430
X14433Y14330
X13433Y14430
X12433Y14330
X11433Y14430
X10433Y14330
X9433Y14430
X8433Y12730
X7433Y12730
X6433Y12730
X5433Y12730
X4433Y12730
X3433Y12730
X1933Y13930
X1933Y14930
X1933Y15930
X1933Y16930
X1933Y17930
X1933Y18930
X1933Y19930
X1933Y20930
X1933Y21930
X1933Y22930
X1933Y24430
X1933Y25430
X1933Y26430
X1933Y27430
X1933Y28430
X1933Y29430
X1933Y30430
X1933Y31430
X4933Y29980
X5933Y29880
X6933Y29980
X7933Y29880
X8933Y29980
X9933Y29880
X10933Y29980
X10933Y28480
X9933Y28380
X8933Y28480
X7933Y28380
X6933Y28480
X5933Y28380
X4933Y28480
X15433Y12730
X16433Y12730
X17433Y12730
X18433Y12730
X19433Y12730
X20433Y12730
X20933Y17430
X20933Y18430
X20933Y19430
X20933Y20430
X20933Y21430
X20933Y22430
X20933Y23430
X20933Y24430
X20933Y26430
X20933Y27430
X20933Y28430
X20933Y29430
X20933Y30430
X20933Y31430
T07
X1383Y7930
X10483Y7930
X13383Y7930
X22483Y7930
M30
